<?xml version="1.0" encoding="UTF-8"?>
<svg id="Layer_1" xmlns="http://www.w3.org/2000/svg" version="1.1" viewBox="0 0 184 44">
  <!-- Generator: Adobe Illustrator 29.1.0, SVG Export Plug-In . SVG Version: 2.1.0 Build 142)  -->
  <defs>
    <style>
      .st0 {
        fill: #4a84a6;
      }

      .st1 {
        fill: #fff;
      }

      .st2 {
        fill: #609440;
      }
    </style>
  </defs>
  <g>
    <g>
      <rect class="st0" x="1707.6" y="-560" width="137" height="23.5"/>
      <path class="st1" d="M1699.7-569.5c-11.7,0-21.2,9.5-21.2,21.2s9.5,21.2,21.2,21.2,21.2-9.5,21.2-21.2-9.5-21.2-21.2-21.2h0Z"/>
      <path class="st0" d="M1699.7-526.2c-12.1,0-22-9.9-22-22s9.9-22,22-22,22,9.9,22,22-9.9,22-22,22h0ZM1699.7-569.5c-11.7,0-21.2,9.5-21.2,21.2s9.5,21.2,21.2,21.2,21.2-9.5,21.2-21.2-9.5-21.2-21.2-21.2h0Z"/>
      <path class="st0" d="M1699.6-567.8c-10.8,0-19.5,8.7-19.5,19.5s8.7,19.5,19.5,19.5,19.5-8.7,19.5-19.5-8.7-19.5-19.5-19.5M1699.7-533.6c-2.8,0-5-3-5-6.8s2.2-6.8,5-6.8,5,3,5,6.8-2.2,6.8-5,6.8M1706-548.4c-1.8-1-4.7-1.1-6.4-1.1s-4.7.2-6.4,1.1c-4,2.2-5.7,3.2-5.7-2.1s4.1-12.5,11.9-12.5,12.3,7.1,12.3,12.5-1.7,4.3-5.7,2.1"/>
    </g>
    <g>
      <path class="st1" d="M1733.4-552.9h8.1v2.5h-5.3v1.7h4.8v2.3h-4.8v3.6h-2.8v-10.1h0Z"/>
      <path class="st1" d="M1742-547.2v-5.7h2.9v5.6c0,1.5.7,2.2,1.9,2.2s1.9-.7,1.9-2.1v-5.7h2.9v5.6c0,3.3-1.9,4.7-4.8,4.7s-4.7-1.5-4.7-4.6h-.1Z"/>
      <path class="st1" d="M1752.4-552.9h2.6l4.2,5.4v-5.4h2.8v10.1h-2.5l-4.3-5.6v5.6h-2.8v-10.1h0Z"/>
      <path class="st1" d="M1762.7-547.8h0c0-3,2.3-5.3,5.5-5.3s3,.6,4.1,1.5l-1.7,2c-.7-.6-1.5-1-2.5-1-1.5,0-2.6,1.2-2.6,2.8h0c0,1.7,1.1,2.8,2.8,2.8s1.2,0,1.6-.4v-1.2h-2v-2.1h4.7v4.6c-1.1.9-2.6,1.6-4.4,1.6-3.2,0-5.5-2.2-5.5-5.2h0Z"/>
      <path class="st1" d="M1773.5-552.9h2.8v10.1h-2.8v-10.1Z"/>
      <path class="st1" d="M1777.1-547.8h0c0-3,2.3-5.3,5.3-5.3s3.4.9,4.3,2.1l-2.1,1.6c-.6-.7-1.2-1.2-2.2-1.2s-2.4,1.2-2.4,2.7h0c0,1.6,1,2.7,2.4,2.7s1.7-.5,2.3-1.2l2.1,1.5c-1,1.3-2.2,2.3-4.5,2.3s-5.2-2.2-5.2-5.2h0Z"/>
      <path class="st1" d="M1787.4-552.9h2.8v10.1h-2.8v-10.1Z"/>
      <path class="st1" d="M1791.3-552.9h3.9c3.6,0,5.7,2.1,5.7,5h0c0,3-2.1,5.1-5.8,5.1h-3.9v-10.1h.1ZM1795.3-545.2c1.7,0,2.8-.9,2.8-2.6h0c0-1.7-1.1-2.6-2.8-2.6h-1.1v5.2h1.1Z"/>
      <path class="st1" d="M1804.5-553h2.7l4.3,10.2h-3l-.7-1.8h-3.9l-.7,1.8h-3l4.3-10.2h0ZM1806.9-546.8l-1.1-2.9-1.1,2.9h2.3-.1Z"/>
      <path class="st1" d="M1810.8-544.3l1.6-1.9c1,.8,2.1,1.2,3.3,1.2s1.2-.3,1.2-.7h0c0-.4-.3-.7-1.7-1-2.2-.5-3.8-1.1-3.8-3.2h0c0-1.9,1.5-3.3,3.9-3.3s3.1.5,4.2,1.3l-1.4,2c-.9-.7-1.9-1-2.8-1s-1,.3-1,.7h0c0,.5.3.7,1.8,1,2.3.5,3.8,1.3,3.8,3.2h0c0,2.1-1.6,3.3-4.1,3.3s-3.5-.6-4.8-1.7h-.2Z"/>
    </g>
  </g>
  <g>
    <g>
      <rect class="st2" x="29.9" y="10.2" width="154" height="23.5"/>
      <path class="st1" d="M22,.8C10.3.8.8,10.3.8,22s9.5,21.2,21.2,21.2,21.2-9.5,21.2-21.2S33.7.8,22,.8h0Z"/>
      <path class="st2" d="M22,44C9.9,44,0,34.1,0,22S9.9,0,22,0s22,9.9,22,22-9.9,22-22,22h0ZM22,.8C10.3.8.8,10.3.8,22s9.5,21.2,21.2,21.2,21.2-9.5,21.2-21.2S33.7.8,22,.8h0Z"/>
      <circle class="st2" cx="22" cy="22" r="19.5"/>
    </g>
    <g>
      <path class="st1" d="M55.8,17.3h5.2c1.3,0,2.2.3,2.8.9.4.4.7.9.7,1.6h0c0,1.2-.7,1.9-1.6,2.3,1.2.4,2,1.1,2,2.5h0c0,1.8-1.4,2.8-3.8,2.8h-5.2v-10.1ZM60.3,21.4c.9,0,1.3-.3,1.3-.9h0c0-.6-.4-.9-1.3-.9h-1.8v1.8h1.8ZM60.7,25.2c.9,0,1.3-.3,1.3-.9h0c0-.6-.4-.9-1.4-.9h-2.1v1.9h2.2Z"/>
      <path class="st1" d="M65.5,17.3h2.8v10.1h-2.8v-10.1Z"/>
      <path class="st1" d="M69.1,22.4h0c0-2.9,2.3-5.3,5.5-5.3s5.5,2.3,5.5,5.2h0c0,2.9-2.3,5.3-5.5,5.3s-5.5-2.3-5.5-5.2ZM77.2,22.4h0c0-1.5-1.1-2.8-2.6-2.8s-2.6,1.2-2.6,2.7h0c0,1.5,1.1,2.8,2.6,2.8s2.6-1.2,2.6-2.7Z"/>
      <path class="st1" d="M80.8,17.3h8.1v2.5h-5.3v1.7h4.8v2.3h-4.8v3.6h-2.8v-10.1Z"/>
      <path class="st1" d="M89.3,23v-5.7h2.9v5.6c0,1.5.7,2.2,1.9,2.2s1.9-.7,1.9-2.1v-5.7h2.9v5.6c0,3.3-1.9,4.7-4.8,4.7s-4.7-1.5-4.7-4.6Z"/>
      <path class="st1" d="M99.7,17.3h2.6l4.2,5.4v-5.4h2.8v10.1h-2.5l-4.3-5.6v5.6h-2.8v-10.1Z"/>
      <path class="st1" d="M110,22.4h0c0-3,2.3-5.3,5.5-5.3s3,.6,4.1,1.5l-1.7,2c-.7-.6-1.5-1-2.5-1-1.5,0-2.6,1.2-2.6,2.8h0c0,1.7,1.1,2.8,2.8,2.8s1.2-.1,1.6-.4v-1.2h-2v-2.1h4.7v4.6c-1.1.9-2.6,1.6-4.4,1.6-3.2,0-5.5-2.2-5.5-5.2Z"/>
      <path class="st1" d="M120.8,17.3h2.8v10.1h-2.8v-10.1Z"/>
      <path class="st1" d="M124.4,22.4h0c0-3,2.3-5.3,5.3-5.3s3.4.9,4.3,2.1l-2.1,1.6c-.6-.7-1.2-1.2-2.2-1.2-1.4,0-2.4,1.2-2.4,2.7h0c0,1.6,1,2.7,2.4,2.7s1.7-.5,2.3-1.2l2.1,1.5c-1,1.3-2.2,2.3-4.5,2.3s-5.2-2.2-5.2-5.2Z"/>
      <path class="st1" d="M134.7,17.3h2.8v10.1h-2.8v-10.1Z"/>
      <path class="st1" d="M138.6,17.3h3.9c3.6,0,5.7,2.1,5.7,5h0c0,3-2.1,5.1-5.8,5.1h-3.9v-10.1ZM142.6,25c1.7,0,2.8-.9,2.8-2.6h0c0-1.7-1.1-2.6-2.8-2.6h-1.1v5.2h1.1Z"/>
      <path class="st1" d="M151.8,17.3h2.7l4.3,10.2h-3l-.7-1.8h-3.9l-.7,1.8h-3l4.3-10.2ZM154.3,23.5l-1.1-2.9-1.1,2.9h2.3Z"/>
      <path class="st1" d="M158.2,26l1.6-1.9c1,.8,2.1,1.2,3.3,1.2s1.2-.3,1.2-.7h0c0-.4-.3-.7-1.7-1-2.2-.5-3.8-1.1-3.8-3.2h0c0-1.9,1.5-3.3,3.9-3.3s3.1.5,4.2,1.3l-1.4,2c-.9-.7-1.9-1-2.8-1s-1,.3-1,.7h0c0,.5.3.7,1.8,1,2.3.5,3.8,1.3,3.8,3.2h0c0,2.1-1.6,3.3-4.1,3.3s-3.5-.6-4.8-1.7Z"/>
    </g>
    <g id="_x38_GTj4Z">
      <g>
        <path class="st1" d="M19.3,23.7c0-1-.2-2.1-.9-2.9-1.6-2.2-5-1.9-7.3-1.3,0,2,.5,4.3,2.2,5.6,1.3,1,3,1.4,4.6.6.3-.1.5-.4.9-.4l1.9,1.6c.2.2,0,.7,0,1,0,1.5,0,3,0,4.4s.2.6-.3.6-.3-.4-.4-.7c-2.2,0-4.4.1-6.6.5l-.7.3c1.4.4,2.9.5,4.4.6,3.6.2,9.5.4,12.9-.5,0,0,.3,0,.3-.1-2.3-.6-4.7-.6-7-.7-.2,0-.3-.2-.2-.5.2-.4.7-.2,1-.1,1.7,0,4.9,0,6.4.7s.7,1.1-.2,1.4c-1.8.6-4.7.6-6.7.7-3.1,0-7.5.2-10.5-.5s-1.6-.4-1.1-1.2,1.9-.7,2.5-.8c1.8-.3,3.7-.3,5.6-.3,0-1.2,0-2.4,0-3.6s.1-.4,0-.6-1.2-1.1-1.5-1.4c-3.1,1.7-6.5,0-7.6-3.2-.3-.9-.7-2.8-.6-3.7,0-.3.6-.4.9-.5,1.8-.5,4.3-.6,6.1.2s2.6,2.6,2.6,4.3-.1.9,0,.9c0,0,.5.4.6.5.4-3,1.9-6,4.2-8,.2-.2,1-.8,1.1-.3s-.3.5-.6.7c-1.9,1.8-3.2,3.9-3.8,6.4s-.2,1.3-.3,1.8-.3.3-.6.2c-1.7-1.4-3.4-2.8-5.3-3.8-.3-.1-1.2-.4-.8-.8s.3,0,.5,0c.7.2,2.3,1.3,2.9,1.7s.9.8,1.3,1,.1,0,.2,0Z"/>
        <path class="st1" d="M22.6,28s.3-.1.4-.2c0-.1.2-1.2.3-1.5,1.3-3.4,5-3.6,7.9-2.2s1.5.8,1.6,1,0,.1,0,.2c0,.3-.4,1.2-.5,1.5-.7,1.5-1.8,2.9-3.3,3.5s-3.7.7-5.1-.4c-.2.2-1.2.5-1.3.8,0,.5,0,.9,0,1.4s.1.6,0,.9-.5.3-.6,0v-2.4c-.1-.2-.1-.4,0-.5.4-.1,1.5-1,1.8-1s.5.4.6.5c1.4.9,3.7.6,5.1-.4,1-.7,1.8-2,2.2-3.2s.3-.6.1-.7-.9-.5-1.2-.6c-1.4-.6-2.9-1-4.4-.5s-2.6,1.8-2.7,3.3c1.3-.7,2.7-1.4,4.2-1.7.3,0,1-.2,1.3-.2.3,0,.4.5,0,.7-.5.2-1.3.2-1.9.4-1.7.5-3.3,1.5-4.9,2.3-.2,0-.4,0-.5-.2s0-1,0-1.3,0-.6,0-.9c0-.9.2-1.8.4-2.7-.3,0-.6-.2-.4-.5s.6,0,.9,0c1.6,0,2.9-.6,4-1.7,1.8-1.9,1.6-4.4,1.4-6.8-2.6-.2-5.6,0-7,2.5s-1,2.7-.6,4.1.5.9,0,1.1-.6-.5-.7-.8c-.7-2.2.3-5.1,2.2-6.4,1.5-1,3.7-1.3,5.4-1.2s1,0,1.1.2.2.9.2,1.1c.2,1.8,0,4.2-.9,5.8-.8,1.3-2.6,2.7-4.2,2.8s-.8,0-.8,0c-.2,1.3-.4,2.7-.4,4.1Z"/>
        <path class="st1" d="M19.1,10.7c-2.1-1.7.6-5.1,2.8-3.2,2,1.8-.6,5.1-2.8,3.2ZM20.2,7.7c-.5,0-1,.5-1.1,1-.4,1.2.8,2.3,2,1.8s.9-3-.9-2.8Z"/>
        <path class="st1" d="M20,16.1c-1.6,1.7-4.4-.6-2.8-2.5s4.5.7,2.8,2.5ZM19.5,15.7c1.2-1.2-.8-3-1.8-1.6-.9,1.2.8,2.6,1.8,1.6Z"/>
        <path class="st1" d="M12.5,11.4c2.8-.4,2.9,3.6.4,3.7-2.3.1-2.6-3.4-.4-3.7ZM13.6,14.2c1.3-1-.1-2.8-1.4-1.9s0,2.8,1.4,1.9Z"/>
        <path class="st1" d="M27.5,8.1c2.1-.2,2.6,2.9.6,3.4-2.4.6-3.1-3.2-.6-3.4ZM27.5,8.7c-1.3.2-1.1,2.2.2,2.1,1.5,0,1.3-2.4-.2-2.1Z"/>
        <path class="st1" d="M33,14.6c1.9,1.6-.9,4.4-2.5,2.4s.9-3.7,2.5-2.4ZM31.6,14.9c-.2,0-.5.3-.7.5-.4.9.4,1.8,1.3,1.5s.7-2.3-.7-2Z"/>
      </g>
    </g>
  </g>
</svg>