<?xml version="1.0" encoding="UTF-8"?>
<svg id="Layer_1" xmlns="http://www.w3.org/2000/svg" version="1.1" viewBox="0 0 183.9 44">
  <!-- Generator: Adobe Illustrator 29.1.0, SVG Export Plug-In . SVG Version: 2.1.0 Build 142)  -->
  <defs>
    <style>
      .st0 {
        fill: #4a84a6;
      }

      .st1 {
        fill: #fff;
      }

      .st2 {
        fill: #609440;
      }
    </style>
  </defs>
  <g>
    <g>
      <rect class="st0" x="1764.2" y="-742.4" width="137" height="23.5"/>
      <path class="st1" d="M1756.3-751.9c-11.7,0-21.2,9.5-21.2,21.2s9.5,21.2,21.2,21.2,21.2-9.5,21.2-21.2-9.5-21.2-21.2-21.2h0Z"/>
      <path class="st0" d="M1756.3-708.6c-12.1,0-22-9.9-22-22s9.9-22,22-22,22,9.9,22,22-9.9,22-22,22h0ZM1756.3-751.9c-11.7,0-21.2,9.5-21.2,21.2s9.5,21.2,21.2,21.2,21.2-9.5,21.2-21.2-9.5-21.2-21.2-21.2h0Z"/>
      <path class="st0" d="M1756.2-750.2c-10.8,0-19.5,8.7-19.5,19.5s8.7,19.5,19.5,19.5,19.5-8.7,19.5-19.5-8.7-19.5-19.5-19.5M1756.3-716c-2.8,0-5-3-5-6.8s2.2-6.8,5-6.8,5,3,5,6.8-2.2,6.8-5,6.8M1762.6-730.8c-1.8-1-4.7-1.1-6.4-1.1s-4.7.2-6.4,1.1c-4,2.2-5.7,3.2-5.7-2.1s4.1-12.5,11.9-12.5,12.3,7.1,12.3,12.5-1.7,4.3-5.7,2.1"/>
    </g>
    <g>
      <path class="st1" d="M1790-735.3h8.1v2.5h-5.3v1.7h4.8v2.3h-4.8v3.6h-2.8v-10.1h0Z"/>
      <path class="st1" d="M1798.6-729.6v-5.7h2.9v5.6c0,1.5.7,2.2,1.9,2.2s1.9-.7,1.9-2.1v-5.7h2.9v5.6c0,3.3-1.9,4.7-4.8,4.7s-4.7-1.5-4.7-4.6h-.1Z"/>
      <path class="st1" d="M1809-735.3h2.6l4.2,5.4v-5.4h2.8v10.1h-2.5l-4.3-5.6v5.6h-2.8v-10.1h0Z"/>
      <path class="st1" d="M1819.3-730.2h0c0-3,2.3-5.3,5.5-5.3s3,.6,4.1,1.5l-1.7,2c-.7-.6-1.5-1-2.5-1-1.5,0-2.6,1.2-2.6,2.8h0c0,1.7,1.1,2.8,2.8,2.8s1.2,0,1.6-.4v-1.2h-2v-2.1h4.7v4.6c-1.1.9-2.6,1.6-4.4,1.6-3.2,0-5.5-2.2-5.5-5.2h0Z"/>
      <path class="st1" d="M1830.1-735.3h2.8v10.1h-2.8v-10.1Z"/>
      <path class="st1" d="M1833.7-730.2h0c0-3,2.3-5.3,5.3-5.3s3.4.9,4.3,2.1l-2.1,1.6c-.6-.7-1.2-1.2-2.2-1.2s-2.4,1.2-2.4,2.7h0c0,1.6,1,2.7,2.4,2.7s1.7-.5,2.3-1.2l2.1,1.5c-1,1.3-2.2,2.3-4.5,2.3s-5.2-2.2-5.2-5.2h0Z"/>
      <path class="st1" d="M1844-735.3h2.8v10.1h-2.8v-10.1Z"/>
      <path class="st1" d="M1847.9-735.3h3.9c3.6,0,5.7,2.1,5.7,5h0c0,3-2.1,5.1-5.8,5.1h-3.9v-10.1h.1ZM1851.9-727.6c1.7,0,2.8-.9,2.8-2.6h0c0-1.7-1.1-2.6-2.8-2.6h-1.1v5.2h1.1Z"/>
      <path class="st1" d="M1861.1-735.4h2.7l4.3,10.2h-3l-.7-1.8h-3.9l-.7,1.8h-3l4.3-10.2h0ZM1863.5-729.2l-1.1-2.9-1.1,2.9h2.3-.1Z"/>
      <path class="st1" d="M1867.4-726.7l1.6-1.9c1,.8,2.1,1.2,3.3,1.2s1.2-.3,1.2-.7h0c0-.4-.3-.7-1.7-1-2.2-.5-3.8-1.1-3.8-3.2h0c0-1.9,1.5-3.3,3.9-3.3s3.1.5,4.2,1.3l-1.4,2c-.9-.7-1.9-1-2.8-1s-1,.3-1,.7h0c0,.5.3.7,1.8,1,2.3.5,3.8,1.3,3.8,3.2h0c0,2.1-1.6,3.3-4.1,3.3s-3.5-.6-4.8-1.7h-.2Z"/>
    </g>
  </g>
  <g>
    <g>
      <rect class="st2" x="29.9" y="10.2" width="154" height="23.5"/>
      <path class="st1" d="M22,.8C10.3.8.8,10.3.8,22s9.5,21.2,21.2,21.2,21.2-9.5,21.2-21.2S33.7.8,22,.8h0Z"/>
      <path class="st2" d="M22,44C9.9,44,0,34.1,0,22S9.9,0,22,0s22,9.9,22,22-9.9,22-22,22h0ZM22,.8C10.3.8.8,10.3.8,22s9.5,21.2,21.2,21.2,21.2-9.5,21.2-21.2S33.7.8,22,.8h0Z"/>
      <circle class="st2" cx="22" cy="22" r="19.5"/>
    </g>
    <g>
      <g>
        <path class="st1" d="M55.8,13.5h4c1,0,1.7.2,2.2.7.3.3.5.7.5,1.2h0c0,.9-.5,1.5-1.2,1.8.9.3,1.5.9,1.5,1.9h0c0,1.4-1.1,2.2-2.9,2.2h-4v-7.8h0ZM59.3,16.7c.7,0,1-.2,1-.7h0c0-.5-.3-.7-1-.7h-1.4v1.4h1.4ZM59.6,19.7c.7,0,1-.2,1-.7h0c0-.5-.3-.7-1.1-.7h-1.6v1.5h1.7Z"/>
        <path class="st1" d="M63.3,13.5h2.2v7.8h-2.2v-7.8Z"/>
        <path class="st1" d="M66.1,17.5h0c0-2.2,1.8-4.1,4.3-4.1s4.3,1.8,4.3,4h0c0,2.2-1.8,4.1-4.3,4.1s-4.3-1.8-4.3-4ZM72.4,17.5h0c0-1.2-.9-2.2-2-2.2s-2,.9-2,2.1h0c0,1.2.9,2.2,2,2.2s2-.9,2-2.1Z"/>
        <path class="st1" d="M75.1,13.5h6.3v1.9h-4.2v1.2h3.8v1.7h-3.8v1.2h4.3v1.9h-6.3v-7.8h0Z"/>
        <path class="st1" d="M81.4,20.3l1.2-1.5c.8.6,1.6.9,2.6.9s.9-.2.9-.5h0c0-.3-.2-.5-1.3-.8-1.7-.4-2.9-.9-2.9-2.5h0c0-1.5,1.2-2.6,3-2.6s2.4.4,3.2,1l-1.1,1.5c-.7-.5-1.5-.8-2.2-.8s-.8.2-.8.5h0c0,.4.2.5,1.4.8,1.8.4,2.9,1,2.9,2.5h0c0,1.6-1.2,2.6-3.2,2.6s-2.7-.5-3.7-1.3h-.2Z"/>
        <path class="st1" d="M90.5,15.5h-2.3v-1.9h6.9v1.9h-2.3v6h-2.2v-6h0Z"/>
        <path class="st1" d="M95.4,13.5h2.2v7.8h-2.2v-7.8Z"/>
        <path class="st1" d="M98.5,13.5h2.3l1.9,3,1.9-3h2.3v7.8h-2.2v-4.5l-2,3.1h0l-2-3v4.5h-2.2v-7.8h0Z"/>
        <path class="st1" d="M107.6,18v-4.4h2.2v4.3c0,1.2.5,1.7,1.5,1.7s1.5-.5,1.5-1.6v-4.4h2.2v4.3c0,2.6-1.5,3.6-3.7,3.6s-3.6-1.2-3.6-3.6h0Z"/>
        <path class="st1" d="M115.6,13.5h2.2v6h3.8v1.9h-6v-7.8h0Z"/>
        <path class="st1" d="M124.7,13.5h2.1l3.3,7.9h-2.3l-.5-1.4h-3l-.5,1.4h-2.3l3.3-7.9h0ZM126.6,18.3l-.9-2.2-.9,2.2h1.8,0Z"/>
        <path class="st1" d="M130.3,13.5h2l3.2,4.2v-4.2h2.2v7.8h-1.9l-3.3-4.3v4.3h-2.2v-7.8Z"/>
        <path class="st1" d="M140.4,15.5h-2.3v-1.9h6.9v1.9h-2.3v6h-2.2v-6h0Z"/>
        <path class="st1" d="M145.4,13.5h6.3v1.9h-4.2v1.2h3.8v1.7h-3.8v1.2h4.3v1.9h-6.3v-7.8h0Z"/>
        <path class="st1" d="M151.7,20.3l1.2-1.5c.8.6,1.6.9,2.6.9s.9-.2.9-.5h0c0-.3-.2-.5-1.3-.8-1.7-.4-2.9-.9-2.9-2.5h0c0-1.5,1.2-2.6,3-2.6s2.4.4,3.2,1l-1.1,1.5c-.7-.5-1.5-.8-2.2-.8s-.8.2-.8.5h0c0,.4.2.5,1.4.8,1.8.4,2.9,1,2.9,2.5h0c0,1.6-1.2,2.6-3.2,2.6s-2.7-.5-3.7-1.3h-.2Z"/>
      </g>
      <g>
        <path class="st1" d="M58.8,28.5l-3-4.9h2.5l1.6,2.9,1.6-2.9h2.4l-3,4.9v2.9h-2.2v-2.9h0Z"/>
        <path class="st1" d="M66.6,23.5h6.3v1.9h-4.1v1.3h3.7v1.8h-3.7v2.8h-2.2v-7.8Z"/>
        <path class="st1" d="M73.1,27.5h0c0-2.2,1.8-4.1,4.3-4.1s4.3,1.8,4.3,4h0c0,2.2-1.8,4.1-4.3,4.1s-4.3-1.8-4.3-4ZM79.3,27.5h0c0-1.2-.9-2.2-2-2.2s-2,.9-2,2.1h0c0,1.2.9,2.2,2,2.2s2-.9,2-2.1Z"/>
        <path class="st1" d="M82.1,23.5h2.2v6h3.8v1.9h-6v-7.8h0Z"/>
        <path class="st1" d="M88.5,23.5h2.2v7.8h-2.2v-7.8Z"/>
        <path class="st1" d="M94.3,23.5h2.1l3.3,7.9h-2.3l-.5-1.4h-3l-.5,1.4h-2.3l3.3-7.9h0ZM96.2,28.3l-.9-2.2-.9,2.2h1.8,0Z"/>
        <path class="st1" d="M99.9,23.5h3.7c1.2,0,2,.3,2.6.9.5.5.7,1.1.7,1.9h0c0,1.2-.6,2-1.6,2.4l1.9,2.7h-2.5l-1.5-2.4h-.9v2.4h-2.2v-7.8h0ZM103.5,27.3c.8,0,1.2-.4,1.2-.9h0c0-.6-.5-.9-1.2-.9h-1.4v1.9h1.5,0Z"/>
        <path class="st1" d="M107.4,23.5h6.3v1.9h-4.2v1.2h3.8v1.7h-3.8v1.2h4.3v1.9h-6.3v-7.8h0Z"/>
        <path class="st1" d="M113.8,30.3l1.2-1.5c.8.6,1.6.9,2.6.9s.9-.2.9-.5h0c0-.3-.2-.5-1.3-.8-1.7-.4-2.9-.9-2.9-2.5h0c0-1.5,1.2-2.6,3-2.6s2.4.4,3.2,1l-1.1,1.5c-.7-.5-1.5-.8-2.2-.8s-.8.2-.8.5h0c0,.4.2.5,1.4.8,1.8.4,2.9,1,2.9,2.5h0c0,1.6-1.2,2.6-3.2,2.6s-2.7-.5-3.7-1.3h-.2Z"/>
      </g>
    </g>
    <g id="_x37_aK39X">
      <g>
        <path class="st1" d="M36.4,28.4c0,1.6-.8,3.5-1.7,4.9-.2.3-.5.8-.8,1-.4.3-.9,0-.8-.4,1.2-1.6,2.1-3.4,2.3-5.5-.6-.4-1.1-.9-1.2-1.6-2.1,0-3.2-2.3-2.2-4.1-.6-.6-1-1.5-.9-2.4s.3-.9.3-.9c0,0-.2-.2-.3-.2-.2,0-.4.1-.7.2-1.2.4-2.6,0-3.2-1.2s-.3-.7-.3-.7c0,0-1-.1-1.1-.1-.8,1-2,1.2-3.1.7s-.3-.2-.4-.2c-.3,0-1.6.6-1.9.7s-1,.6-1,.7v.5c-.2,1.3-1.3,2.2-2.6,2.3-.1.3-.9,1.5-.8,1.8s.2.3.3.4c.6,1.2.5,2.5-.5,3.4s-.4.2-.4.3c0,.3.2,1.5.3,1.8,1.6,6.9,9.8,9.8,15.6,5.7s.9-.7,1-.8c.4,0,.7.3.5.7s-.6.5-.8.7c-4.6,3.5-11.4,2.7-15-1.8-1.1,1.2-3.2,1-4.1-.3-1.1-1.7-.1-3.9,1.9-4.1l-.2-1.5c-1.2.3-2.5-.4-3-1.6-1-2.3,1.4-4.5,3.7-3.4l.7-1.3c-1.5-.6-2.2-2.3-1.5-3.8,1-1.9,3.9-1.9,4.8,0,0,0,.9-.5,1.1-.6.4-.2.9-.4,1.3-.6-1.4-2.1.5-4.7,2.9-4.1,1.2.3,2,1.5,2,2.7s-.4.8.4.7c.5-3.6,5.8-2.8,5.3.8-.5,3.6-.3.8-.5,1.1.3.1.8.4.8.8s-.4.6-.4.9c0,.5,0,1.1.3,1.5s.7.6.8.8c0,.4-.2.4-.3.7-.5.9-.3,1.9.5,2.4s.8.2,1.3.3.4.8.6,1.1.8.5,1.1,1v.6ZM23.6,14c-2.2.3-1.9,3.8.5,3.5,2.2-.3,1.9-3.8-.5-3.5ZM29.3,15.1c-2.2.3-1.9,3.8.6,3.5,2.5-.3,1.8-3.9-.6-3.5ZM16.5,17.8c-2.1.3-1.8,3.9.6,3.5,2.2-.3,1.8-3.9-.6-3.5ZM15.3,24.5c-1.6-1.7-4.2.8-2.6,2.5s4.2-.8,2.6-2.5ZM14.9,30.7c-.8,0-1.5.9-1.6,1.6-.1,1.7,2,2.6,3.1,1.3-.4-.6-.7-1.1-1-1.7s-.3-1-.4-1.1,0,0-.2,0h0Z"/>
        <path class="st1" d="M10.9,9.6c1.7.4,2.7,2.3,1.8,3.9-1.1,2-4,1.8-4.8-.3s.3-3.2,2-3.6h1ZM10.4,10.4c-2.4,0-2.3,3.6,0,3.6s2.3-3.6,0-3.6Z"/>
        <path class="st1" d="M10,17.7c3.6-.4,4,5,.5,5.3s-4-5-.5-5.3ZM10,18.6c-.7.1-1.4.8-1.5,1.5-.2,1.8,2.2,2.8,3.2,1.2.9-1.3-.2-3-1.7-2.8h0Z"/>
        <path class="st1" d="M21.8,19.5c3.7-.4,4.1,5,.7,5.3-3.5.3-4-4.9-.7-5.3ZM21.8,20.4c-2.1.3-1.8,3.8.5,3.5s2-3.9-.5-3.5Z"/>
        <path class="st1" d="M19.5,13.5c-.2-.3,0-.7,0-1,.2-1.6-1.7-2.6-2.9-1.5-1.2,1-.5,3.1,1.1,3.1s1.1-.4,1.3,0-.3.7-.7.8c-2.4.5-4.2-2.3-2.7-4.2,1.5-1.9,4.3-1.1,4.7,1s0,1.3-.2,1.7-.5.3-.7,0h.1Z"/>
      </g>
    </g>
  </g>
</svg>