<?xml version="1.0" encoding="UTF-8"?>
<svg id="Layer_1" xmlns="http://www.w3.org/2000/svg" version="1.1" viewBox="0 0 183.9 44">
  <!-- Generator: Adobe Illustrator 29.1.0, SVG Export Plug-In . SVG Version: 2.1.0 Build 142)  -->
  <defs>
    <style>
      .st0 {
        fill: #274e5f;
      }

      .st1 {
        fill: #4a84a6;
      }

      .st2 {
        fill: #fff;
      }
    </style>
  </defs>
  <g>
    <g>
      <rect class="st1" x="1694.3" y="-491.3" width="137" height="23.5"/>
      <path class="st2" d="M1686.4-500.8c-11.7,0-21.2,9.5-21.2,21.2s9.5,21.2,21.2,21.2,21.2-9.5,21.2-21.2-9.5-21.2-21.2-21.2h0Z"/>
      <path class="st1" d="M1686.4-457.5c-12.1,0-22-9.9-22-22s9.9-22,22-22,22,9.9,22,22-9.9,22-22,22h0ZM1686.4-500.8c-11.7,0-21.2,9.5-21.2,21.2s9.5,21.2,21.2,21.2,21.2-9.5,21.2-21.2-9.5-21.2-21.2-21.2h0Z"/>
      <path class="st1" d="M1686.3-499.1c-10.8,0-19.5,8.7-19.5,19.5s8.7,19.5,19.5,19.5,19.5-8.7,19.5-19.5-8.7-19.5-19.5-19.5M1686.4-464.9c-2.8,0-5-3-5-6.8s2.2-6.8,5-6.8,5,3,5,6.8-2.2,6.8-5,6.8M1692.7-479.7c-1.8-1-4.7-1.1-6.4-1.1s-4.7.2-6.4,1.1c-4,2.2-5.7,3.2-5.7-2.1s4.1-12.5,11.9-12.5,12.3,7.1,12.3,12.5-1.7,4.3-5.7,2.1"/>
    </g>
    <g>
      <path class="st2" d="M1720.1-484.2h8.1v2.5h-5.3v1.7h4.8v2.3h-4.8v3.6h-2.8v-10.1h0Z"/>
      <path class="st2" d="M1728.7-478.5v-5.7h2.9v5.6c0,1.5.7,2.2,1.9,2.2s1.9-.7,1.9-2.1v-5.7h2.9v5.6c0,3.3-1.9,4.7-4.8,4.7s-4.7-1.5-4.7-4.6h-.1Z"/>
      <path class="st2" d="M1739.1-484.2h2.6l4.2,5.4v-5.4h2.8v10.1h-2.5l-4.3-5.6v5.6h-2.8v-10.1h0Z"/>
      <path class="st2" d="M1749.4-479.1h0c0-3,2.3-5.3,5.5-5.3s3,.6,4.1,1.5l-1.7,2c-.7-.6-1.5-1-2.5-1-1.5,0-2.6,1.2-2.6,2.8h0c0,1.7,1.1,2.8,2.8,2.8s1.2,0,1.6-.4v-1.2h-2v-2.1h4.7v4.6c-1.1.9-2.6,1.6-4.4,1.6-3.2,0-5.5-2.2-5.5-5.2h0Z"/>
      <path class="st2" d="M1760.2-484.2h2.8v10.1h-2.8v-10.1Z"/>
      <path class="st2" d="M1763.8-479.1h0c0-3,2.3-5.3,5.3-5.3s3.4.9,4.3,2.1l-2.1,1.6c-.6-.7-1.2-1.2-2.2-1.2s-2.4,1.2-2.4,2.7h0c0,1.6,1,2.7,2.4,2.7s1.7-.5,2.3-1.2l2.1,1.5c-1,1.3-2.2,2.3-4.5,2.3s-5.2-2.2-5.2-5.2h0Z"/>
      <path class="st2" d="M1774.1-484.2h2.8v10.1h-2.8v-10.1Z"/>
      <path class="st2" d="M1778-484.2h3.9c3.6,0,5.7,2.1,5.7,5h0c0,3-2.1,5.1-5.8,5.1h-3.9v-10.1h.1ZM1782-476.5c1.7,0,2.8-.9,2.8-2.6h0c0-1.7-1.1-2.6-2.8-2.6h-1.1v5.2h1.1Z"/>
      <path class="st2" d="M1791.2-484.3h2.7l4.3,10.2h-3l-.7-1.8h-3.9l-.7,1.8h-3l4.3-10.2h0ZM1793.6-478.1l-1.1-2.9-1.1,2.9h2.3-.1Z"/>
      <path class="st2" d="M1797.5-475.6l1.6-1.9c1,.8,2.1,1.2,3.3,1.2s1.2-.3,1.2-.7h0c0-.4-.3-.7-1.7-1-2.2-.5-3.8-1.1-3.8-3.2h0c0-1.9,1.5-3.3,3.9-3.3s3.1.5,4.2,1.3l-1.4,2c-.9-.7-1.9-1-2.8-1s-1,.3-1,.7h0c0,.5.3.7,1.8,1,2.3.5,3.8,1.3,3.8,3.2h0c0,2.1-1.6,3.3-4.1,3.3s-3.5-.6-4.8-1.7h-.2Z"/>
    </g>
  </g>
  <g>
    <g>
      <rect class="st0" x="29.9" y="10.2" width="154" height="23.5"/>
      <path class="st2" d="M22,.8C10.3.8.8,10.3.8,22s9.5,21.2,21.2,21.2,21.2-9.5,21.2-21.2S33.7.8,22,.8h0Z"/>
      <path class="st0" d="M22,44C9.9,44,0,34.1,0,22S9.9,0,22,0s22,9.9,22,22-9.9,22-22,22h0ZM22,.8C10.3.8.8,10.3.8,22s9.5,21.2,21.2,21.2,21.2-9.5,21.2-21.2S33.7.8,22,.8h0Z"/>
      <circle class="st0" cx="22" cy="22" r="19.5"/>
    </g>
    <g>
      <path class="st2" d="M55.8,17.3h5.2c1.3,0,2.2.3,2.8.9.4.4.7.9.7,1.6h0c0,1.2-.7,1.9-1.6,2.3,1.2.4,2,1.1,2,2.5h0c0,1.8-1.4,2.8-3.8,2.8h-5.2v-10.1h-.1ZM60.3,21.4c.9,0,1.3-.3,1.3-.9h0c0-.6-.4-.9-1.3-.9h-1.8v1.8h1.8ZM60.7,25.2c.9,0,1.3-.3,1.3-.9h0c0-.6-.4-.9-1.4-.9h-2.1v1.9h2.2Z"/>
      <path class="st2" d="M65.5,17.3h2.8v10.1h-2.8v-10.1Z"/>
      <path class="st2" d="M69.1,22.4h0c0-2.9,2.3-5.3,5.5-5.3s5.5,2.3,5.5,5.2h0c0,2.9-2.3,5.3-5.5,5.3s-5.5-2.3-5.5-5.2ZM77.2,22.4h0c0-1.5-1.1-2.8-2.6-2.8s-2.6,1.2-2.6,2.7h0c0,1.5,1.1,2.8,2.6,2.8s2.6-1.2,2.6-2.7Z"/>
      <path class="st2" d="M80.8,17.3h2.8v7.7h4.9v2.5h-7.7v-10.1h0Z"/>
      <path class="st2" d="M88.6,22.4h0c0-2.9,2.3-5.3,5.5-5.3s5.5,2.3,5.5,5.2h0c0,2.9-2.3,5.3-5.5,5.3s-5.5-2.3-5.5-5.2ZM96.7,22.4h0c0-1.5-1.1-2.8-2.6-2.8s-2.6,1.2-2.6,2.7h0c0,1.5,1.1,2.8,2.6,2.8s2.6-1.2,2.6-2.7ZM94.6,14l2.6.8-2.1,1.9h-1.9l1.5-2.7h0Z"/>
      <path class="st2" d="M99.9,22.4h0c0-3,2.3-5.3,5.5-5.3s3,.6,4.1,1.5l-1.7,2c-.7-.6-1.5-1-2.5-1-1.5,0-2.6,1.2-2.6,2.8h0c0,1.7,1.1,2.8,2.8,2.8s1.2-.1,1.6-.4v-1.2h-2v-2.1h4.7v4.6c-1.1.9-2.6,1.6-4.4,1.6-3.2,0-5.5-2.2-5.5-5.2h0Z"/>
      <path class="st2" d="M110.8,17.3h2.8v10.1h-2.8v-10.1Z"/>
      <path class="st2" d="M114.4,22.4h0c0-3,2.3-5.3,5.3-5.3s3.4.9,4.3,2.1l-2.1,1.6c-.6-.7-1.2-1.2-2.2-1.2s-2.4,1.2-2.4,2.7h0c0,1.6,1,2.7,2.4,2.7s1.7-.5,2.3-1.2l2.1,1.5c-1,1.3-2.2,2.3-4.5,2.3s-5.2-2.2-5.2-5.2h0Z"/>
      <path class="st2" d="M123.9,22.4h0c0-2.9,2.3-5.3,5.5-5.3s5.5,2.3,5.5,5.2h0c0,2.9-2.3,5.3-5.5,5.3s-5.5-2.3-5.5-5.2ZM132,22.4h0c0-1.5-1.1-2.8-2.6-2.8s-2.6,1.2-2.6,2.7h0c0,1.5,1.1,2.8,2.6,2.8s2.6-1.2,2.6-2.7Z"/>
      <path class="st2" d="M134.8,26l1.6-1.9c1,.8,2.1,1.2,3.3,1.2s1.2-.3,1.2-.7h0c0-.4-.3-.7-1.7-1-2.2-.5-3.8-1.1-3.8-3.2h0c0-1.9,1.5-3.3,3.9-3.3s3.1.5,4.2,1.3l-1.4,2c-.9-.7-1.9-1-2.8-1s-1,.3-1,.7h0c0,.5.3.7,1.8,1,2.3.5,3.8,1.3,3.8,3.2h0c0,2.1-1.6,3.3-4.1,3.3s-3.5-.6-4.8-1.7h-.2Z"/>
    </g>
    <g id="cxjazQ">
      <g>
        <path class="st2" d="M27.2,4.9c.6,0,1.4.4,1.7,1s.5,1.5.5,1.8-.3.6-.6.7c-.9.4-2.1.4-3,.8-1.7.7-2.9,2.1-3.5,3.8s-.5,1.5-.4,1.9l.2.8c.2-.2.3-.5.5-.6.4-.3.9-.4,1.4-.3s.3.2.4,0c1.1-1.4,2.2-2.9,3.3-4.3.2-.3,1.1-1.4,1.3-1.6s.2,0,.4,0,1,.6,1,.6c.1.1.2.4,0,.5l-1.9,4.4s-.9-.2-.9-.4l1.7-4-4.1,5.3,1.5.8.4-1c.2,0,.7.3.9.3,0,0-.4,1-.4,1.1s.3.2.3.3c.6.8.4,1.4,0,2.1,1.2.6,2.2,1.3,2,2.8s-.3.8-.5,1.2c-1.5,2.7-3.1,5.2-4.7,7.9-.5.8-.9,1.6-1.4,2.4h-.1c-.2,0-.6-.4-.8-.5,2-3.5,4.1-6.8,6.1-10.3,0-.1.2-.2.2-.3.4-.7.2-1.4-.4-1.8-2.4-1.3-4.8-2.9-7.3-4.1-1.3-.7-1.8-.5-2.6.7s-.5.9-.8,1.3c0,0-1-.4-.8-.6.8-1.3,1.3-2.8,3.1-2.8s.6,0,.9.1c-.1-1.3.3-2.5.9-3.6.9-1.6,2.2-2.8,3.9-3.4-.5-1.2-.5-2.3.6-3l.9-.2v.2ZM28.4,7.5l-.2-.9c-.1-.4-.7-.7-1.2-.6s-.8.7-.7,1.1l.2.9,1.8-.5h.1ZM27.2,18.2c.1-.2,0-.4-.1-.6-1.1-.5-2.2-1.4-3.3-1.8s-.7,0-1,.5c1.4.7,2.7,1.6,4.1,2.3,0-.1.2-.2.2-.3h0Z"/>
        <path class="st2" d="M35.9,15.5l.3,1.1c0,2.1-2,3.7-4,2.8-2.6-1.2-1.6-4.2-.7-6.2.9-2,.4-1.2,1.3-.7.9.5,2.3,1.9,3.1,3ZM32.4,13.6c-.5,1.4-1.8,4,0,4.9s3-.7,2.6-2.2c-.2-.7-1.3-1.7-1.9-2.2s-.8-.6-.8-.6h0Z"/>
        <path class="st2" d="M18,19.8h.4c2,1.1,4,2.2,6,3.3.4.2,1.4.6,1.7.9s.2.4.1.6-.7,1.3-.8,1.3h-.1c-.2,0-.6-.4-.8-.5l.5-1-6.6-3.7-4.9,8.2,6.6,3.7,3.7-6.2h.1c.2,0,.6.4.8.5l-4,6.7c-.2.3-.4.4-.8.2-1.6-.9-3.2-1.8-4.8-2.7-.7-.4-2.1-1-2.7-1.5s-.3-.4-.1-.7c.4-.9,1.2-2,1.8-2.9,1.2-2.1,2.4-4.1,3.6-6.2,0,0,.1-.2.2-.2v.2Z"/>
        <path class="st2" d="M14.8,21.4c.2.1.7.3.8.5s0,0,0,.1l-5.3,8.8c-.4.7-.2,1.5.5,2s.3,0,.5.2c2.4,1.4,4.9,2.8,7.4,4.1,1.2.2,1.5-.6,2.1-1.4s.5-1,.9-1.5c0,0,.8.4.8.5-.4.8-.9,1.6-1.4,2.4-.6.8-1.7,1.2-2.7.9-2.6-1.5-5.5-2.8-8-4.4-1.2-.7-1.6-2.1-.9-3.3l5.3-8.9Z"/>
        <path class="st2" d="M32.1,22c.3-.2.6,0,.8.2.8.5,2.8,2.2,3.1,3.2,1,2.7-1.9,5.1-4.3,3.4s-1.1-3.4-.5-5.1.6-1.5.8-1.7h.1ZM32.5,23.2c-.5,1.4-1.8,4,0,4.9s3-.7,2.6-2.2c-.2-.7-1.3-1.7-1.9-2.2s-.8-.6-.8-.6h0Z"/>
        <path class="st2" d="M16.1,19.1l.8.5-.7,1.1c-.2,0-.8-.4-.8-.5s.6-.9.7-1.1Z"/>
      </g>
    </g>
  </g>
</svg>