<?xml version="1.0" encoding="UTF-8"?>
<svg id="Layer_1" xmlns="http://www.w3.org/2000/svg" version="1.1" viewBox="0 0 183.9 44">
  <!-- Generator: Adobe Illustrator 29.1.0, SVG Export Plug-In . SVG Version: 2.1.0 Build 142)  -->
  <defs>
    <style>
      .st0 {
        fill: #274e5f;
      }

      .st1 {
        fill: #4a84a6;
      }

      .st2 {
        fill: #fff;
      }
    </style>
  </defs>
  <g>
    <g>
      <rect class="st1" x="1734.1" y="-642.5" width="137" height="23.5"/>
      <path class="st2" d="M1726.2-652c-11.7,0-21.2,9.5-21.2,21.2s9.5,21.2,21.2,21.2,21.2-9.5,21.2-21.2-9.5-21.2-21.2-21.2h0Z"/>
      <path class="st1" d="M1726.2-608.7c-12.1,0-22-9.9-22-22s9.9-22,22-22,22,9.9,22,22-9.9,22-22,22h0ZM1726.2-652c-11.7,0-21.2,9.5-21.2,21.2s9.5,21.2,21.2,21.2,21.2-9.5,21.2-21.2-9.5-21.2-21.2-21.2h0Z"/>
      <path class="st1" d="M1726.1-650.3c-10.8,0-19.5,8.7-19.5,19.5s8.7,19.5,19.5,19.5,19.5-8.7,19.5-19.5-8.7-19.5-19.5-19.5M1726.2-616.1c-2.8,0-5-3-5-6.8s2.2-6.8,5-6.8,5,3,5,6.8-2.2,6.8-5,6.8M1732.5-630.9c-1.8-1-4.7-1.1-6.4-1.1s-4.7.2-6.4,1.1c-4,2.2-5.7,3.2-5.7-2.1s4.1-12.5,11.9-12.5,12.3,7.1,12.3,12.5-1.7,4.3-5.7,2.1"/>
    </g>
    <g>
      <path class="st2" d="M1759.9-635.4h8.1v2.5h-5.3v1.7h4.8v2.3h-4.8v3.6h-2.8v-10.1h0Z"/>
      <path class="st2" d="M1768.5-629.7v-5.7h2.9v5.6c0,1.5.7,2.2,1.9,2.2s1.9-.7,1.9-2.1v-5.7h2.9v5.6c0,3.3-1.9,4.7-4.8,4.7s-4.7-1.5-4.7-4.6h-.1Z"/>
      <path class="st2" d="M1778.9-635.4h2.6l4.2,5.4v-5.4h2.8v10.1h-2.5l-4.3-5.6v5.6h-2.8v-10.1h0Z"/>
      <path class="st2" d="M1789.2-630.3h0c0-3,2.3-5.3,5.5-5.3s3,.6,4.1,1.5l-1.7,2c-.7-.6-1.5-1-2.5-1-1.5,0-2.6,1.2-2.6,2.8h0c0,1.7,1.1,2.8,2.8,2.8s1.2,0,1.6-.4v-1.2h-2v-2.1h4.7v4.6c-1.1.9-2.6,1.6-4.4,1.6-3.2,0-5.5-2.2-5.5-5.2h0Z"/>
      <path class="st2" d="M1800-635.4h2.8v10.1h-2.8v-10.1Z"/>
      <path class="st2" d="M1803.6-630.3h0c0-3,2.3-5.3,5.3-5.3s3.4.9,4.3,2.1l-2.1,1.6c-.6-.7-1.2-1.2-2.2-1.2s-2.4,1.2-2.4,2.7h0c0,1.6,1,2.7,2.4,2.7s1.7-.5,2.3-1.2l2.1,1.5c-1,1.3-2.2,2.3-4.5,2.3s-5.2-2.2-5.2-5.2h0Z"/>
      <path class="st2" d="M1813.9-635.4h2.8v10.1h-2.8v-10.1Z"/>
      <path class="st2" d="M1817.8-635.4h3.9c3.6,0,5.7,2.1,5.7,5h0c0,3-2.1,5.1-5.8,5.1h-3.9v-10.1h.1ZM1821.8-627.7c1.7,0,2.8-.9,2.8-2.6h0c0-1.7-1.1-2.6-2.8-2.6h-1.1v5.2h1.1Z"/>
      <path class="st2" d="M1831-635.5h2.7l4.3,10.2h-3l-.7-1.8h-3.9l-.7,1.8h-3l4.3-10.2h0ZM1833.4-629.3l-1.1-2.9-1.1,2.9h2.3-.1Z"/>
      <path class="st2" d="M1837.3-626.8l1.6-1.9c1,.8,2.1,1.2,3.3,1.2s1.2-.3,1.2-.7h0c0-.4-.3-.7-1.7-1-2.2-.5-3.8-1.1-3.8-3.2h0c0-1.9,1.5-3.3,3.9-3.3s3.1.5,4.2,1.3l-1.4,2c-.9-.7-1.9-1-2.8-1s-1,.3-1,.7h0c0,.5.3.7,1.8,1,2.3.5,3.8,1.3,3.8,3.2h0c0,2.1-1.6,3.3-4.1,3.3s-3.5-.6-4.8-1.7h-.2Z"/>
    </g>
  </g>
  <g>
    <g>
      <rect class="st0" x="29.9" y="10.2" width="154" height="23.5"/>
      <path class="st2" d="M22,.8C10.3.8.8,10.3.8,22s9.5,21.2,21.2,21.2,21.2-9.5,21.2-21.2S33.7.8,22,.8h0Z"/>
      <path class="st0" d="M22,44C9.9,44,0,34.1,0,22S9.9,0,22,0s22,9.9,22,22-9.9,22-22,22h0ZM22,.8C10.3.8.8,10.3.8,22s9.5,21.2,21.2,21.2,21.2-9.5,21.2-21.2S33.7.8,22,.8h0Z"/>
      <circle class="st0" cx="22" cy="22" r="19.5"/>
    </g>
    <g>
      <path class="st2" d="M58.3,18.5h2l3.3,7.7h-2.3l-.5-1.4h-3l-.5,1.4h-2.3l3.3-7.7ZM60.2,23.2l-.8-2.2-.8,2.2h1.7,0Z"/>
      <path class="st2" d="M63,22.4h0c0-2.3,1.7-4,4-4s2.6.7,3.3,1.6l-1.6,1.2c-.5-.5-.9-.9-1.7-.9s-1.8.9-1.8,2h0c0,1.2.8,2,1.8,2s1.3-.4,1.7-.9l1.6,1.1c-.8,1-1.7,1.7-3.4,1.7s-3.9-1.7-3.9-3.9h0Z"/>
      <path class="st2" d="M72.7,20.4h-2.3v-1.9h6.8v1.9h-2.3v5.8h-2.1v-5.8h0Z"/>
      <path class="st2" d="M77.5,18.5h2.1v7.7h-2.1v-7.7Z"/>
      <path class="st2" d="M79.9,18.5h2.4l1.7,4.9,1.7-4.9h2.4l-3.1,7.7h-2s-3.1-7.7-3.1-7.7Z"/>
      <path class="st2" d="M89.9,18.5h2l3.3,7.7h-2.3l-.5-1.4h-3l-.5,1.4h-2.3s3.3-7.7,3.3-7.7ZM91.8,23.2l-.8-2.2-.8,2.2h1.7,0Z"/>
      <path class="st2" d="M95.4,18.5h3c2.7,0,4.3,1.6,4.3,3.8h0c0,2.3-1.6,3.9-4.4,3.9h-3v-7.7h0ZM98.4,24.4c1.3,0,2.1-.7,2.1-2h0c0-1.3-.8-2-2.1-2h-.8v3.9h.8Z"/>
      <path class="st2" d="M103,22.4h0c0-2.2,1.7-4,4.2-4s4.2,1.7,4.2,3.9h0c0,2.2-1.7,4-4.2,4s-4.2-1.7-4.2-3.9ZM109.2,22.4h0c0-1.1-.8-2.1-2-2.1s-2,.9-2,2h0c0,1.1.8,2.1,2,2.1s2-.9,2-2Z"/>
      <path class="st2" d="M111.9,18.5h3.6c1.2,0,2,.3,2.5.8.5.5.7,1.1.7,1.8h0c0,1.2-.6,2-1.6,2.4l1.8,2.7h-2.4l-1.5-2.4h-.9v2.4h-2.1v-7.7h0ZM115.4,22.3c.8,0,1.1-.4,1.1-.9h0c0-.6-.5-.9-1.1-.9h-1.4v1.8h1.4,0Z"/>
      <path class="st2" d="M121.8,18.5h3c2.7,0,4.3,1.6,4.3,3.8h0c0,2.3-1.6,3.9-4.4,3.9h-3v-7.7h0ZM124.7,24.4c1.3,0,2.1-.7,2.1-2h0c0-1.3-.8-2-2.1-2h-.8v3.9h.8Z"/>
      <path class="st2" d="M129.6,18.5h6.2v1.8h-4.1v1.1h3.7v1.7h-3.7v1.2h4.2v1.8h-6.2v-7.7h0Z"/>
      <path class="st2" d="M138.3,25.1l1.2-1.4c.8.6,1.6.9,2.5.9s.9-.2.9-.5h0c0-.3-.2-.5-1.3-.8-1.7-.4-2.9-.8-2.9-2.4h0c0-1.4,1.1-2.5,3-2.5s2.4.4,3.2,1l-1.1,1.5c-.7-.5-1.4-.8-2.1-.8s-.8.2-.8.5h0c0,.4.2.5,1.4.8,1.7.4,2.9,1,2.9,2.4h0c0,1.6-1.2,2.5-3.1,2.5s-2.7-.5-3.6-1.3h-.2Z"/>
      <path class="st2" d="M145.4,22.9v-4.3h2.2v4.2c0,1.1.5,1.7,1.4,1.7s1.4-.5,1.4-1.6v-4.3h2.2v4.2c0,2.5-1.4,3.6-3.6,3.6s-3.6-1.1-3.6-3.5h0Z"/>
      <path class="st2" d="M153.3,18.5h6.2v1.8h-4.1v1.1h3.7v1.7h-3.7v1.2h4.2v1.8h-6.2v-7.7h0Z"/>
      <path class="st2" d="M160.1,18.5h2.1v5.8h3.7v1.9h-5.8v-7.7h0Z"/>
      <path class="st2" d="M165.6,22.4h0c0-2.2,1.7-4,4.2-4s4.2,1.7,4.2,3.9h0c0,2.2-1.7,4-4.2,4s-4.2-1.7-4.2-3.9ZM171.7,22.4h0c0-1.1-.8-2.1-2-2.1s-2,.9-2,2h0c0,1.1.8,2.1,2,2.1s2-.9,2-2Z"/>
      <path class="st2" d="M177.3,20.4c0-.3-.2-.6-.5-.6s-.5.3-.5.6c0,1.6,3.3.8,3.3,3.6s-.8,2.6-2.9,2.6-2.6-.6-2.6-2.3v-.2h2.1v.4c0,.4.2.7.5.7s.5-.4.5-.7c0-.5-.2-.6-.5-.8-.3-.2-.7-.3-1.1-.5-1.2-.6-1.6-1-1.6-2.2s.3-1.7.8-2c.4-.2.9-.5,1.8-.5,2.2,0,2.6,1.1,2.6,2.4h-2v-.5Z"/>
    </g>
    <g>
      <path class="st2" d="M22.2,19.6c.3-.1.6-.2,1-.2h4.3c.6,0,1.2.3,1.7.7.7.6,2,3.1,2.5,4s.3.7.5,1.1h2.6c.5-1.5,2.3-2.2,3.6-1.2,2,1.6.3,4.8-2.2,3.8s-1-.8-1.3-1.5h-2.6c0,0-.3.7-.4.9-.6,1-1.3,2.5-2,3.4-.6.8-1.5,1.4-2.5,1.4s-.4,0-.6,0c-1.6,0-4.1.4-5.2-.7s-2.2-3.4-2.5-4.2c-.1-.3-.3-.7-.3-1-.3.1-.6.2-1,.2h-4.3c-.4,0-.8-.3-1,0-.4.5-.7,1.4-1.1,1.9.3.5.6.9.6,1.5.1,2.2-2.7,3.3-4,1.5-1.3-1.7.4-4,2.4-3.5l1.3-2.2c-.2-.2-.4-.5-.6-.8-.8-1.3-2.4-3.6-2.2-5.1s1.9-3.8,2.4-4.5c1.2-1.8,3-1.3,4.8-1.3s.9-.1,1.3,0,1,.2,1.5.3l1.5-1.9c-1.2-1.9.6-4.3,2.8-3.3,1.8.8,1.6,3.5-.3,4.1-.7.2-1,0-1.6,0l-1.4,1.9c.7,1.3,1.6,2.5,2.2,3.8s.3.7.4,1.1l-.3-.2ZM21.7,9.6c-1.1.2-1.1,1.9,0,2.1,1.6.3,1.6-2.4,0-2.1ZM13.4,14.8c-.4,0-1,.2-1.2.6s-2.2,3.7-2.3,4.1,0,.8.2,1.3c.3.7,1.6,3,2.1,3.6.3.4.8.7,1.3.7h4.1c1,0,1-.3,1.3-.7s1.8-2.9,2.1-3.6.3-.9,0-1.5-1.5-2.8-2.1-3.6-.9-.8-1.6-.9-2.9,0-3.8,0h0ZM23,20.6c-.4,0-.7.3-1,.6-.5.5-1.2,2-1.6,2.7s-.9,1.3-.8,2.2,1.8,3.3,2.1,3.9.7.9,1.6,1,2.7,0,3.7,0,1.1-.2,1.5-.7,1.9-3.1,2.2-3.7.1-1.1,0-1.5c-.3-.7-1.6-3-2.1-3.6-.3-.4-.8-.7-1.3-.7-1,0-3.4-.1-4.3,0v-.2ZM36.7,24.7c-1.1.2-1.2,1.8,0,2.1,1.6.4,1.7-2.3,0-2.1ZM9.3,28.7c-1.1.2-1.1,1.9,0,2.1,1.6.2,1.5-2.4,0-2.1Z"/>
      <path class="st2" d="M10.9,20.4c-.1-.1-.2-.4-.1-.6.6-1,1.1-2.2,1.8-3.2s.5-.8,1-.5c.5.3.3.5.2.8-.4,1-1.5,2.4-2,3.4-.2.3-.6.3-.9,0h0Z"/>
      <path class="st2" d="M27.7,22.4s-.4.2-.5.2h-3.8c-.8,0-.8-1.1-.2-1.2h4.2c.4.1.6.7.3,1Z"/>
    </g>
  </g>
</svg>